<?xml version="1.0" encoding="UTF-8" standalone="no"?>
<!-- Created with Inkscape (http://www.inkscape.org/) -->

<svg
   sodipodi:docname="favicon2.svg"
   inkscape:version="1.3 (0e150ed, 2023-07-21)"
   id="svg1415"
   version="1.1"
   viewBox="0 0 33.866666 33.866666"
   height="128"
   width="128"
   xmlns:inkscape="http://www.inkscape.org/namespaces/inkscape"
   xmlns:sodipodi="http://sodipodi.sourceforge.net/DTD/sodipodi-0.dtd"
   xmlns="http://www.w3.org/2000/svg"
   xmlns:svg="http://www.w3.org/2000/svg">
  <sodipodi:namedview
     id="namedview1417"
     pagecolor="#ffffff"
     bordercolor="#000000"
     borderopacity="0.25"
     inkscape:showpageshadow="false"
     inkscape:pageopacity="0.0"
     inkscape:pagecheckerboard="0"
     inkscape:deskcolor="#d1d1d1"
     inkscape:document-units="px"
     showgrid="false"
     inkscape:zoom="7.4140624"
     inkscape:cx="66.023183"
     inkscape:cy="52.535301"
     inkscape:window-width="1920"
     inkscape:window-height="1168"
     inkscape:window-x="0"
     inkscape:window-y="1"
     inkscape:window-maximized="0"
     inkscape:current-layer="layer1"
     showborder="false" />
  <defs
     id="defs1412">
    <inkscape:path-effect
       effect="perspective-envelope"
       up_left_point="0.80887054,5.4757985"
       up_right_point="35.119343,0.84205016"
       down_left_point="0.80887054,29.007054"
       down_right_point="35.119343,15.326464"
       id="path-effect2"
       is_visible="true"
       lpeversion="1"
       deform_type="perspective"
       horizontal_mirror="false"
       vertical_mirror="false"
       overflow_perspective="true" />
    <inkscape:path-effect
       effect="perspective-envelope"
       up_left_point="4.2027107,11.151578"
       up_right_point="37.360255,7.3331026"
       down_left_point="4.0956507,32.143142"
       down_right_point="37.395942,19.866922"
       id="path-effect8314"
       is_visible="true"
       lpeversion="1"
       deform_type="perspective"
       horizontal_mirror="false"
       vertical_mirror="false"
       overflow_perspective="true" />
  </defs>
  <g
     inkscape:label="Layer 1"
     inkscape:groupmode="layer"
     id="layer1"
     style="display:inline"
     transform="matrix(0.96583083,0,0,0.9493815,1.3355281,0.72502789)">
    <g
       transform="matrix(0.963751,0,0,1.03761,-0.166583,5.74785)"
       id="g786">
      <g
         id="g842"
         style="display:inline">
        <g
           style="font-weight:bold;font-size:24.3394px;font-family:'Comic Sans MS';-inkscape-font-specification:'Comic Sans MS Bold';display:inline;fill:#ab37c8;stroke-width:4.68636;stroke-linecap:round;stroke-linejoin:round"
           id="g841">
          <path
             id="path786"
             style="fill:#ab37c8"
             d="m 15.699729,2.0008248 c -0.659982,0.00423 -1.370061,0.058776 -2.131635,0.1643684 C 10.092697,2.6470527 6.8129395,3.9776948 3.8208625,6.2405125 0.50090983,8.74993 -1.2595448,11.506093 -1.2595448,14.358391 c 0,1.596298 0.65324804,2.88283 1.91687877,3.845429 l 2.06791633,1.575903 c 0.6554894,0.4993 1.4754611,0.91154 2.4537701,1.23474 2.7268173,0.892999 5.6712306,0.729821 8.7690276,-0.377878 1.468798,-0.525199 2.907851,-1.234785 4.31755,-2.117584 3.274896,1.099599 5.066109,1.507496 5.587209,1.299696 0.429199,-0.1711 0.787632,-0.441345 1.076732,-0.810545 0.2798,-0.3459 0.418303,-0.675859 0.418303,-0.991859 0,-0.225199 -0.103885,-0.417201 -0.313285,-0.576701 l -2.067916,-1.575903 c -0.1004,-0.0765 -0.225154,-0.145232 -0.374054,-0.206732 l -0.519191,-0.155331 c 1.789862,-1.825197 2.649646,-3.520194 2.649646,-5.155858 0,-2.1865074 -0.595051,-3.8610172 -1.81835,-5.0553161 C 22.750892,5.1403721 22.58837,4.9998113 22.41677,4.8690814 L 20.348264,3.2937431 C 19.211265,2.427584 17.679676,1.9881278 15.699729,2.0008248 Z m 2.067917,1.5759031 c 1.383946,-0.00887 2.548563,0.2033539 3.512802,0.6275371 0.92338,1.1482261 1.374088,2.6626266 1.374088,4.5656003 0,1.8153177 -1.054429,3.7033327 -3.269727,5.7619307 l 2.067917,1.575904 c 0.408188,0.159205 1.019331,0.392128 1.773511,0.677243 -0.06401,0.209542 -0.185455,0.425029 -0.365204,0.647306 -0.2892,0.3691 -0.646843,0.63991 -1.076143,0.81111 -0.521099,0.2077 -2.313002,-0.200098 -5.587799,-1.299697 -1.409698,0.8827 -2.848751,1.592386 -4.31755,2.117585 C 8.7817245,20.168946 5.8373313,20.331559 3.1105141,19.43856 2.6473519,19.285594 2.2205554,19.11219 1.8290549,18.919472 1.1546122,18.091658 0.80896151,17.095313 0.80896151,15.934294 c 0,-2.852197 1.75986069,-5.609006 5.07981739,-8.1184432 C 8.8808659,5.5530331 12.161204,4.2229558 15.6366,3.7410963 16.398175,3.6355039 17.107654,3.5809602 17.767646,3.5767279 Z M 13.568094,4.9001476 C 11.175596,5.3197972 8.9940977,6.2847189 7.0728896,7.8282773 5.0003017,9.4753357 3.9235208,11.237853 3.9235208,13.051351 c 0,0.997599 0.4237005,1.815552 1.2531397,2.447451 l 2.0685063,1.575903 C 6.4157276,16.442906 5.9920272,15.624289 5.9920272,14.62669 c 0,-1.813499 1.0767708,-3.575421 3.1493687,-5.2225096 C 11.062554,7.860622 13.244103,6.8957003 15.6366,6.4760508 Z" />
          <path
             d="m 7.24517,17.0745 c 0.37426,0.2851 0.83109,0.5323 1.36883,0.7408 L 6.54577,16.2398 C 6.00803,16.0312 5.5512,15.7841 5.17694,15.499 Z"
             id="path807"
             style="fill:#672178" />
          <path
             d="m 8.614,17.8153 c 1.6693,0.6331 3.4538,0.6272 5.3338,0.024 l -2.0682,-1.5755 c -1.87999,0.6031 -3.66451,0.6091 -5.33383,-0.024 z"
             id="path808"
             style="fill:#672178" />
          <path
             d="m 13.9478,17.8393 c 0.2426,-0.0778 0.5022,-0.1711 0.7783,-0.2797 L 12.6578,15.984 c -0.2761,0.1086 -0.5356,0.2019 -0.7782,0.2798 z"
             id="path809"
             style="fill:#672178" />
          <path
             d="M 14.7261,17.5596 C 14.0836,17.316 13.5874,17.0617 13.2412,16.798 L 11.173,15.2224 c 0.3462,0.2637 0.8424,0.5181 1.4848,0.7616 z"
             id="path810"
             style="fill:#672178" />
          <path
             d="m 13.2412,16.798 c -0.3934,-0.2997 -0.5929,-0.6115 -0.5929,-0.9332 l -2.0682,-1.5755 c 0,0.3217 0.1995,0.6334 0.5929,0.9331 z"
             id="path811"
             style="fill:#672178" />
          <path
             id="path812"
             style="fill:#ab37c8"
             d="m 15.233047,4.7499002 c -0.509092,-0.00477 -1.063579,0.044766 -1.664953,0.1502474 L 15.6366,6.4760508 c 1.2699,-0.2227405 2.330604,-0.1974665 3.196568,0.067216 0.483615,0.7795531 0.722149,1.7872142 0.722149,3.0298008 0,1.2575484 -0.924256,2.6038794 -2.849654,4.0984774 -0.897999,-0.288999 -1.73251,-0.681915 -2.498609,-1.180515 -0.4335,-0.2806 -0.958145,-0.339346 -1.577045,-0.171146 -0.517399,0.1406 -0.980558,0.391791 -1.387657,0.75519 -0.4404,0.3959 -0.661969,0.802107 -0.661969,1.214406 l 2.067916,1.575338 c 0,-0.412299 0.22226,-0.817941 0.662559,-1.21384 0.4071,-0.3633 0.870258,-0.614691 1.387658,-0.755191 0.618899,-0.1682 1.143444,-0.110018 1.577044,0.170581 0.765999,0.4986 1.60071,0.891616 2.498609,1.180516 1.925398,-1.494599 2.849654,-2.840879 2.849654,-4.098478 0,-1.6766984 -0.43432,-2.9258087 -1.319219,-3.7635279 -0.0912,-0.08609 -0.186155,-0.1671612 -0.285555,-0.2428811 L 17.950543,5.5666586 C 17.253556,5.0356892 16.353049,4.7604001 15.233047,4.7499002 Z m 17.17403,5.7348188 c -0.595299,0.459 -1.541734,1.016442 -2.874433,1.687741 -1.275099,0.6449 -2.363978,1.129577 -3.243177,1.439777 -0.911699,0.3216 -1.564379,0.339576 -1.946378,0.04858 l 2.067916,1.575339 c 0.3821,0.291099 1.035269,0.273588 1.946968,-0.04801 0.879299,-0.310199 1.968079,-0.794877 3.243178,-1.439776 1.332798,-0.6713 2.279133,-1.229407 2.874433,-1.688307 z" />
          <path
             d="m 26.411,15.2361 c -0.2652,-0.202 -0.3999,-0.5528 -0.3999,-1.0538 l -2.0682,-1.5755 c 0,0.5009 0.1346,0.8517 0.3999,1.0538 z"
             id="path824"
             style="fill:#672178" />
          <path
             d="m 26.0111,14.1823 c 0,0.0044 2e-4,0.0067 4e-4,0.0069 l -2.0682,-1.5756 c -3e-4,-2e-4 -4e-4,-0.0025 -4e-4,-0.0068 z"
             id="path825"
             style="fill:#ab37c8" />
          <path
             d="m 26.0115,14.1892 c 0.0057,0.0044 0.0718,-0.9195 0.1979,-2.7662 L 24.1411,9.8474 c -0.126,1.8468 -0.1921,2.7706 -0.1978,2.7662 z"
             id="path826"
             style="fill:#892ca0" />
          <path
             id="path827"
             style="fill:#ab37c8"
             d="m 25.934293,0.23908934 c -0.06543,0.001159 -0.133516,0.006357 -0.203547,0.0158155 -0.3781,0.0510609 -0.696815,0.20633912 -0.954014,0.46599286 -0.2528,0.26084774 -0.379954,0.5525924 -0.379954,0.8743721 0,3.003257 -0.08467,5.7508524 -0.255466,8.2523099 l 2.067916,1.5753383 c 0.1708,-2.5014875 0.256056,-5.2484881 0.256056,-8.2517451 0,-0.3217797 0.127154,-0.6140872 0.379954,-0.8749369 0.05412,-0.054632 0.110972,-0.1043239 0.170507,-0.1496825 -0.01604,2.5234373 -0.09642,4.8845104 -0.241306,7.0887398 -0.0545,0.4506096 -0.111967,1.1344637 -0.172867,2.0520627 l 2.068506,1.575339 c 1.203228,-0.399199 2.631246,-1.073805 4.245571,-1.990496 l 1.559935,1.187858 c 0.430999,-0.335499 0.643679,-0.710845 0.643679,-1.130244 0,-0.2487 -0.08544,-0.446512 -0.257235,-0.594212 -0.0111,-0.0096 -0.02223,-0.01888 -0.03363,-0.02768 L 32.759892,8.7325859 c -0.1882,-0.1433899 -0.431119,-0.1710569 -0.729818,-0.081337 -0.1065,0.03197 -0.218105,0.083327 -0.335705,0.1536365 -1.009623,0.6016142 -1.952811,1.1154737 -2.823104,1.5374936 0.143358,-2.3482869 0.215936,-4.8684079 0.215936,-7.5733721 0,-0.3069496 -0.119014,-0.5510971 -0.358714,-0.7337269 l -0.0041,-0.00282 -1.482646,-1.12967966 -0.58173,-0.44339926 -0.0035,-0.002824 C 26.45811,0.30674002 26.217825,0.23406817 25.934293,0.23908934 Z" />
        </g>
        <path
           d="m 23.852861,19.81874 c -0.521094,0.207776 -2.312597,-0.200112 -5.587426,-1.299692 -1.409689,0.882714 -2.848834,1.592274 -4.317614,2.11748 -3.097811,1.107715 -6.0419932,1.270759 -8.7688066,0.377737 -2.8642685,-0.946083 -4.37014386,-2.655698 -4.37014386,-5.080131 0,-2.852273 1.76017436,-5.608856 5.08012856,-8.118277 2.9920867,-2.2628134 6.2720989,-3.5931533 9.7475189,-4.0750169 3.391128,-0.4701768 5.755499,0.073679 7.268058,1.5497015 1.223355,1.1942954 1.818468,2.8685501 1.818468,5.0551074 0,1.815365 -1.054842,3.703279 -3.27013,5.761875 0.453306,0.176799 1.125822,0.433404 2.004519,0.764954 l 1.203474,0.359963 c 0.45976,0.190003 0.687224,0.450594 0.687224,0.783769 0,0.315942 -0.139005,0.645777 -0.418814,0.991732 -0.289149,0.369116 -0.647224,0.639651 -1.076456,0.810798 z M 15.636518,6.4759671 C 13.244013,6.8956216 11.062339,7.8603483 9.1411357,9.4039102 7.0685381,11.050967 5.9919043,12.813283 5.9919043,14.626751 c 0,1.44779 0.8925938,2.517854 2.6220958,3.188595 1.6693209,0.633103 3.4538369,0.627133 5.3338209,0.02399 0.242598,-0.07783 0.502134,-0.171165 0.778244,-0.279771 -1.372562,-0.520304 -2.077773,-1.089994 -2.077773,-1.694719 0,-0.412314 0.222068,-0.818123 0.662404,-1.214012 0.4071,-0.363356 0.870421,-0.614607 1.387849,-0.755184 0.618894,-0.168145 1.143248,-0.109659 1.57682,0.170914 0.766074,0.49865 1.600692,0.891334 2.498647,1.180284 1.925389,-1.494603 2.849597,-2.840797 2.849597,-4.098333 0,-1.6767151 -0.434088,-2.9260121 -1.318997,-3.7637335 C 19.283529,6.4205689 17.749548,6.1053334 15.636518,6.4759671 Z m 18.838928,5.5843099 c -0.595355,0.458967 -1.541679,1.016475 -2.874423,1.687813 -1.27511,0.644882 -2.364045,1.129789 -3.243284,1.439972 -1.544827,0.544993 -2.34662,0.216659 -2.34662,-1.00573 0,0.09665 0.06621,-0.825135 0.198232,-2.759361 0.170811,-2.5014597 0.255874,-5.2488046 0.255874,-8.25206 0,-0.3217774 0.127169,-0.613874 0.379987,-0.8747218 0.257217,-0.2596541 0.57581,-0.414454 0.95389,-0.4655151 0.373542,-0.050448 0.68142,0.017298 0.925525,0.2016823 0.242178,0.1829282 0.36255,0.4281061 0.36255,0.7366153 0,2.884831 -0.0812,5.5621692 -0.244249,8.0419093 -0.05454,0.450612 -0.112223,1.134308 -0.173056,2.051848 1.410013,-0.467845 3.126513,-1.310817 5.092687,-2.482379 0.117532,-0.07031 0.229496,-0.121393 0.335955,-0.153365 0.316965,-0.09519 0.570937,-0.05837 0.763592,0.108763 0.171758,0.14763 0.257237,0.345463 0.257237,0.594185 0,0.419414 -0.212968,0.7949 -0.643897,1.130344 z"
           id="text2"
           style="font-weight:bold;font-size:24.3394px;font-family:'Comic Sans MS';-inkscape-font-specification:'Comic Sans MS Bold';display:inline;fill:#cd87de;stroke-width:4.68636;stroke-linecap:round;stroke-linejoin:round"
           aria-label="QL"
           inkscape:path-effect="#path-effect2"
           inkscape:original-d="m 19.930987,29.007054 q -0.867567,0 -5.76397,-4.385371 -1.972822,0.713069 -3.874338,0.713069 -3.7792617,0 -6.655304,-2.899812 -2.82850446,-2.864157 -2.82850446,-6.500806 0,-4.27841 3.31576776,-7.249528 3.220692,-2.8879268 7.6298317,-2.8879268 4.718135,0 7.130683,3.3989591 2.032245,2.8641577 2.032245,7.3446037 0,3.71984 -3.577226,6.393846 0.713068,0.641762 2.151089,1.9134 l 1.35483,1.069603 q 0.79626,0.736837 0.79626,1.426137 0,0.653646 -0.487264,1.140909 -0.499148,0.522917 -1.2241,0.522917 z M 11.75447,9.0767936 q -3.0780788,0 -5.2885906,1.9728224 -2.2699342,1.996591 -2.2699342,4.884518 0,2.305588 1.8777466,4.218988 1.8896311,1.901515 4.2189872,1.901515 0.308997,0 0.665531,-0.03565 -1.7470175,-1.675711 -1.7470175,-2.721544 0,-0.713069 0.5466857,-1.188447 0.5110328,-0.439726 1.1765628,-0.439726 0.808144,0 1.390483,0.724953 1.045834,1.307292 2.329357,2.353125 2.864158,-1.747017 2.864158,-4.207103 0,-3.280114 -1.35483,-5.252937 Q 14.642396,9.0767936 11.75447,9.0767936 Z M 34.085393,23.350045 q -1.402367,0.617992 -4.337832,1.105256 -2.685891,0.45161 -4.409139,0.45161 -2.911696,0 -2.911696,-2.555162 0,0.202036 0.23769,-3.767378 0.308996,-5.157861 0.308996,-11.4803998 0,-0.6774149 0.463494,-1.1527938 0.475379,-0.4753789 1.188448,-0.4753789 0.713068,0 1.188447,0.4753789 0.475379,0.4753789 0.475379,1.1527938 0,6.3344238 -0.320881,11.6705518 -0.10696,0.950758 -0.225805,2.911696 2.81662,-0.04754 7.225759,-1.378599 0.273343,-0.08319 0.522917,-0.08319 0.748722,0 1.212216,0.546685 0.415957,0.487264 0.415957,1.093372 0,1.022064 -1.03395,1.485558 z" />
      </g>
    </g>
  </g>
</svg>
